<?xml version="1.0" encoding="UTF-8" standalone="no"?>
<!-- Created with Inkscape (http://www.inkscape.org/) -->

<svg
   width="255.99998"
   height="255.99998"
   viewBox="0 0 67.733328 67.733329"
   version="1.1"
   id="svg1"
   inkscape:export-filename="moderation.svg"
   inkscape:export-xdpi="96"
   inkscape:export-ydpi="96"
   xmlns:inkscape="http://www.inkscape.org/namespaces/inkscape"
   xmlns:sodipodi="http://sodipodi.sourceforge.net/DTD/sodipodi-0.dtd"
   xmlns="http://www.w3.org/2000/svg"
   xmlns:svg="http://www.w3.org/2000/svg">
  <sodipodi:namedview
     id="namedview1"
     pagecolor="#505050"
     bordercolor="#ffffff"
     borderopacity="1"
     inkscape:showpageshadow="0"
     inkscape:pageopacity="0"
     inkscape:pagecheckerboard="1"
     inkscape:deskcolor="#505050"
     inkscape:document-units="px">
    <inkscape:page
       x="0"
       y="0"
       width="67.73333"
       height="67.73333"
       id="page2"
       margin="0"
       bleed="0" />
  </sodipodi:namedview>
  <defs
     id="defs1" />
  <g
     inkscape:label="Layer 1"
     inkscape:groupmode="layer"
     id="layer1">
    <path
       d="M 33.867183,0 C 22.214075,0 12.698966,9.5130404 12.698966,21.16615 v 12.700516 h -2.115633 c -1.1726331,0 -2.1166664,0.944034 -2.1166664,2.116667 v 29.633333 c 0,1.172633 0.9440333,2.116667 2.1166664,2.116666 h 46.566666 c 1.172634,0 2.116667,-0.944033 2.116667,-2.116666 V 35.983333 c 0,-1.172633 -0.944033,-2.116667 -2.116667,-2.116667 H 55.033333 V 21.16615 C 55.033333,9.5130404 45.520292,0 33.867183,0 Z m 0,8.4666666 c 7.109024,0 12.698966,5.5904594 12.698966,12.6994834 V 33.866666 H 21.16615 V 21.16615 c 0,-7.109024 5.59201,-12.6994834 12.701033,-12.6994834 z"
       style="fill:#ffffff"
       id="path4" />
  </g>
</svg>
